<?xml version="1.0" standalone="no"?>
<!DOCTYPE svg PUBLIC "-//W3C//DTD SVG 20010904//EN"
 "http://www.w3.org/TR/2001/REC-SVG-20010904/DTD/svg10.dtd">
<svg version="1.0" xmlns="http://www.w3.org/2000/svg"
 width="100.000000pt" height="100.000000pt" viewBox="0 0 100.000000 100.000000"
 preserveAspectRatio="xMidYMid meet">
<metadata>
Created by potrace 1.11, written by Peter Selinger 2001-2013
</metadata>
<g transform="translate(0.000000,100.000000) scale(0.100000,-0.100000)"
fill="#000000" stroke="none">
<path d="M95 908 c-3 -7 -4 -193 -3 -413 l3 -400 410 0 410 0 0 410 0 410
-408 3 c-321 2 -409 0 -412 -10z m795 -403 l0 -385 -385 0 -385 0 0 385 0 385
385 0 385 0 0 -385z"/>
<path d="M244 666 c-3 -8 -4 -25 -2 -38 l3 -23 260 0 260 0 0 35 0 35 -258 3
c-217 2 -258 0 -263 -12z"/>
<path d="M244 396 c-3 -8 -4 -25 -2 -38 l3 -23 260 0 260 0 0 35 0 35 -258 3
c-217 2 -258 0 -263 -12z"/>
</g>
</svg>
